<mxfile host="app.diagrams.net" agent="Mozilla/5.0 (Windows NT 10.0; Win64; x64) AppleWebKit/537.36 (KHTML, like Gecko) Chrome/130.0.0.0 YaBrowser/24.12.0.0 Safari/537.36" version="26.0.5">
  <diagram id="C5RBs43oDa-KdzZeNtuy" name="Page-1">
    <mxGraphModel dx="2150" dy="1305" grid="0" gridSize="10" guides="1" tooltips="1" connect="1" arrows="1" fold="1" page="0" pageScale="1" pageWidth="827" pageHeight="1169" math="0" shadow="0">
      <root>
        <mxCell id="WIyWlLk6GJQsqaUBKTNV-0" />
        <mxCell id="WIyWlLk6GJQsqaUBKTNV-1" parent="WIyWlLk6GJQsqaUBKTNV-0" />
        <mxCell id="i5632uBjRB5B52lGXk-J-0" value="MainForm" style="swimlane;fontStyle=1;align=center;verticalAlign=top;childLayout=stackLayout;horizontal=1;startSize=26;horizontalStack=0;resizeParent=1;resizeParentMax=0;resizeLast=0;collapsible=1;marginBottom=0;whiteSpace=wrap;html=1;" parent="WIyWlLk6GJQsqaUBKTNV-1" vertex="1">
          <mxGeometry x="-83.12" y="-130" width="344" height="363" as="geometry" />
        </mxCell>
        <mxCell id="i5632uBjRB5B52lGXk-J-1" value="- _builder: Builder&lt;div&gt;- _parameters: Parameters&lt;br&gt;&lt;/div&gt;&lt;div&gt;- _minLegLength: int&lt;/div&gt;&lt;div&gt;-&amp;nbsp;_minSeatThickness: int&lt;br&gt;&lt;/div&gt;&lt;div&gt;-&amp;nbsp;_parameterNames: Dictionary&amp;lt;StoolParameters, string&amp;gt;&lt;/div&gt;&lt;div&gt;-&amp;nbsp;_errorMessages: StringBuilder&lt;/div&gt;" style="text;strokeColor=none;fillColor=none;align=left;verticalAlign=top;spacingLeft=4;spacingRight=4;overflow=hidden;rotatable=0;points=[[0,0.5],[1,0.5]];portConstraint=eastwest;whiteSpace=wrap;html=1;" parent="i5632uBjRB5B52lGXk-J-0" vertex="1">
          <mxGeometry y="26" width="344" height="106" as="geometry" />
        </mxCell>
        <mxCell id="i5632uBjRB5B52lGXk-J-2" value="" style="line;strokeWidth=1;fillColor=none;align=left;verticalAlign=middle;spacingTop=-1;spacingLeft=3;spacingRight=3;rotatable=0;labelPosition=right;points=[];portConstraint=eastwest;strokeColor=inherit;" parent="i5632uBjRB5B52lGXk-J-0" vertex="1">
          <mxGeometry y="132" width="344" height="8" as="geometry" />
        </mxCell>
        <mxCell id="i5632uBjRB5B52lGXk-J-3" value="+ BuildModel(): void&lt;div&gt;- TextBoxChanged: void&lt;/div&gt;&lt;div&gt;&lt;div&gt;- TextBox_OnlyDigitKeyPress: void&lt;/div&gt;&lt;/div&gt;&lt;div&gt;-&amp;nbsp;ValidateAndSetValue(TextBox, StoolParameters): void&lt;/div&gt;&lt;div&gt;-&amp;nbsp;&lt;span style=&quot;background-color: initial;&quot;&gt;AdjustMinValues(int,&lt;/span&gt;&lt;span style=&quot;background-color: transparent;&quot;&gt;&amp;nbsp;StoolParameters, label&lt;/span&gt;&lt;span style=&quot;background-color: initial; color: light-dark(rgb(0, 0, 0), rgb(255, 255, 255));&quot;&gt;): void&lt;/span&gt;&lt;/div&gt;&lt;div&gt;&lt;span style=&quot;background-color: initial;&quot;&gt;-&amp;nbsp;&lt;/span&gt;&lt;span style=&quot;background-color: initial;&quot;&gt;SetError(TextBox, string): void&lt;/span&gt;&lt;/div&gt;&lt;div&gt;&lt;span style=&quot;background-color: initial;&quot;&gt;-&amp;nbsp;&lt;/span&gt;&lt;span style=&quot;background-color: initial;&quot;&gt;ClearError(string, textBox): void&lt;/span&gt;&lt;/div&gt;&lt;div&gt;&lt;span style=&quot;background-color: initial;&quot;&gt;-&lt;/span&gt;&lt;span style=&quot;background-color: initial;&quot;&gt;&amp;nbsp;ValidateDependentParameters(): void&lt;/span&gt;&lt;/div&gt;&lt;div&gt;&lt;span style=&quot;background-color: initial;&quot;&gt;-&amp;nbsp;&lt;/span&gt;&lt;span style=&quot;background-color: initial;&quot;&gt;UpdateErrorLabel(): void&lt;/span&gt;&lt;/div&gt;&lt;div&gt;&lt;span style=&quot;background-color: initial;&quot;&gt;- SetColors(textBox): void&lt;/span&gt;&lt;/div&gt;&lt;div&gt;&lt;span style=&quot;background-color: initial;&quot;&gt;-&amp;nbsp;&lt;/span&gt;&lt;span style=&quot;background-color: initial;&quot;&gt;ResetColor(textBox): void&lt;/span&gt;&lt;/div&gt;&lt;div&gt;&lt;span style=&quot;background-color: initial;&quot;&gt;-&amp;nbsp;&lt;/span&gt;&lt;span style=&quot;background-color: initial;&quot;&gt;Build_Button_Click: void&lt;/span&gt;&lt;/div&gt;&lt;div&gt;&lt;span style=&quot;background-color: initial;&quot;&gt;-&amp;nbsp;&lt;/span&gt;&lt;span style=&quot;background-color: initial;&quot;&gt;SeatTypeComboBox_SelectedIndexChanged: void&lt;/span&gt;&lt;/div&gt;&lt;div&gt;&lt;span style=&quot;background-color: initial;&quot;&gt;-&amp;nbsp;&lt;/span&gt;&lt;span style=&quot;background-color: initial;&quot;&gt;LegsTypeComboBox_SelectedIndexChanged: void&lt;/span&gt;&lt;/div&gt;" style="text;strokeColor=none;fillColor=none;align=left;verticalAlign=top;spacingLeft=4;spacingRight=4;overflow=hidden;rotatable=0;points=[[0,0.5],[1,0.5]];portConstraint=eastwest;whiteSpace=wrap;html=1;" parent="i5632uBjRB5B52lGXk-J-0" vertex="1">
          <mxGeometry y="140" width="344" height="223" as="geometry" />
        </mxCell>
        <mxCell id="i5632uBjRB5B52lGXk-J-4" value="Builder&lt;div&gt;&lt;br&gt;&lt;/div&gt;" style="swimlane;fontStyle=1;align=center;verticalAlign=top;childLayout=stackLayout;horizontal=1;startSize=26;horizontalStack=0;resizeParent=1;resizeParentMax=0;resizeLast=0;collapsible=1;marginBottom=0;whiteSpace=wrap;html=1;" parent="WIyWlLk6GJQsqaUBKTNV-1" vertex="1">
          <mxGeometry x="-83.12" y="283" width="305" height="129" as="geometry" />
        </mxCell>
        <mxCell id="i5632uBjRB5B52lGXk-J-5" value="&lt;div&gt;- _wrapper: Wrapper&lt;/div&gt;" style="text;strokeColor=none;fillColor=none;align=left;verticalAlign=top;spacingLeft=4;spacingRight=4;overflow=hidden;rotatable=0;points=[[0,0.5],[1,0.5]];portConstraint=eastwest;whiteSpace=wrap;html=1;" parent="i5632uBjRB5B52lGXk-J-4" vertex="1">
          <mxGeometry y="26" width="305" height="27" as="geometry" />
        </mxCell>
        <mxCell id="i5632uBjRB5B52lGXk-J-6" value="" style="line;strokeWidth=1;fillColor=none;align=left;verticalAlign=middle;spacingTop=-1;spacingLeft=3;spacingRight=3;rotatable=0;labelPosition=right;points=[];portConstraint=eastwest;strokeColor=inherit;" parent="i5632uBjRB5B52lGXk-J-4" vertex="1">
          <mxGeometry y="53" width="305" height="8" as="geometry" />
        </mxCell>
        <mxCell id="i5632uBjRB5B52lGXk-J-7" value="&lt;span style=&quot;background-color: initial;&quot;&gt;+&amp;nbsp;BuildChair(Parameters, SeatTypes, LegTypes): void&lt;/span&gt;&lt;div&gt;&lt;div&gt;- BuildSeat(): void&lt;/div&gt;&lt;div&gt;- BuildLegs(): void&amp;nbsp;&lt;/div&gt;&lt;/div&gt;" style="text;strokeColor=none;fillColor=none;align=left;verticalAlign=top;spacingLeft=4;spacingRight=4;overflow=hidden;rotatable=0;points=[[0,0.5],[1,0.5]];portConstraint=eastwest;whiteSpace=wrap;html=1;" parent="i5632uBjRB5B52lGXk-J-4" vertex="1">
          <mxGeometry y="61" width="305" height="68" as="geometry" />
        </mxCell>
        <mxCell id="i5632uBjRB5B52lGXk-J-8" value="Wrapper" style="swimlane;fontStyle=1;align=center;verticalAlign=top;childLayout=stackLayout;horizontal=1;startSize=26;horizontalStack=0;resizeParent=1;resizeParentMax=0;resizeLast=0;collapsible=1;marginBottom=0;whiteSpace=wrap;html=1;" parent="WIyWlLk6GJQsqaUBKTNV-1" vertex="1">
          <mxGeometry x="-68" y="454" width="294" height="178" as="geometry" />
        </mxCell>
        <mxCell id="i5632uBjRB5B52lGXk-J-9" value="&lt;div&gt;&lt;br&gt;&lt;/div&gt;" style="text;strokeColor=none;fillColor=none;align=left;verticalAlign=top;spacingLeft=4;spacingRight=4;overflow=hidden;rotatable=0;points=[[0,0.5],[1,0.5]];portConstraint=eastwest;whiteSpace=wrap;html=1;" parent="i5632uBjRB5B52lGXk-J-8" vertex="1">
          <mxGeometry y="26" width="294" height="1" as="geometry" />
        </mxCell>
        <mxCell id="Ahqk0sararzWoLQaCMGD-1" value="-&amp;nbsp;_kompas:&amp;nbsp;IKompasAPIObject" style="text;html=1;align=left;verticalAlign=middle;resizable=0;points=[];autosize=1;strokeColor=none;fillColor=none;" parent="i5632uBjRB5B52lGXk-J-8" vertex="1">
          <mxGeometry y="27" width="294" height="26" as="geometry" />
        </mxCell>
        <mxCell id="i5632uBjRB5B52lGXk-J-10" value="" style="line;strokeWidth=1;fillColor=none;align=left;verticalAlign=middle;spacingTop=-1;spacingLeft=3;spacingRight=3;rotatable=0;labelPosition=right;points=[];portConstraint=eastwest;strokeColor=inherit;" parent="i5632uBjRB5B52lGXk-J-8" vertex="1">
          <mxGeometry y="53" width="294" height="25" as="geometry" />
        </mxCell>
        <mxCell id="i5632uBjRB5B52lGXk-J-11" value="&lt;div&gt;+ OpenCad(): void&lt;/div&gt;&lt;div&gt;+&amp;nbsp;CreatePart(): void&lt;/div&gt;&lt;div&gt;+&amp;nbsp;CreateSketch(IPart7, string): void&lt;/div&gt;&lt;div&gt;+ CreateRectangle(ISketch, int, int, int, int): void&lt;/div&gt;&lt;div&gt;+&amp;nbsp;CreateCircle(ISketch, int, int, int): void&lt;/div&gt;&lt;div&gt;+&amp;nbsp;ExtrudeSketch(ISketch, double, string, bool): void&lt;/div&gt;" style="text;strokeColor=none;fillColor=none;align=left;verticalAlign=top;spacingLeft=4;spacingRight=4;overflow=hidden;rotatable=0;points=[[0,0.5],[1,0.5]];portConstraint=eastwest;whiteSpace=wrap;html=1;" parent="i5632uBjRB5B52lGXk-J-8" vertex="1">
          <mxGeometry y="78" width="294" height="100" as="geometry" />
        </mxCell>
        <mxCell id="_lfjs1lxYITKfCPjN5Uu-0" style="edgeStyle=orthogonalEdgeStyle;rounded=0;orthogonalLoop=1;jettySize=auto;html=1;entryX=0;entryY=0.25;entryDx=0;entryDy=0;exitX=1;exitY=0.474;exitDx=0;exitDy=0;exitPerimeter=0;startArrow=diamond;startFill=1;" parent="WIyWlLk6GJQsqaUBKTNV-1" source="i5632uBjRB5B52lGXk-J-15" target="Ahqk0sararzWoLQaCMGD-13" edge="1">
          <mxGeometry relative="1" as="geometry" />
        </mxCell>
        <mxCell id="_lfjs1lxYITKfCPjN5Uu-1" style="edgeStyle=orthogonalEdgeStyle;rounded=0;orthogonalLoop=1;jettySize=auto;html=1;entryX=0;entryY=0.75;entryDx=0;entryDy=0;startArrow=diamond;startFill=1;exitX=1;exitY=0.5;exitDx=0;exitDy=0;" parent="WIyWlLk6GJQsqaUBKTNV-1" source="i5632uBjRB5B52lGXk-J-13" target="Ahqk0sararzWoLQaCMGD-14" edge="1">
          <mxGeometry relative="1" as="geometry">
            <mxPoint x="740" y="382" as="sourcePoint" />
            <Array as="points">
              <mxPoint x="820" y="302" />
            </Array>
          </mxGeometry>
        </mxCell>
        <mxCell id="i5632uBjRB5B52lGXk-J-12" value="Parameters" style="swimlane;fontStyle=1;align=center;verticalAlign=top;childLayout=stackLayout;horizontal=1;startSize=26;horizontalStack=0;resizeParent=1;resizeParentMax=0;resizeLast=0;collapsible=1;marginBottom=0;whiteSpace=wrap;html=1;" parent="WIyWlLk6GJQsqaUBKTNV-1" vertex="1">
          <mxGeometry x="344" y="213" width="370" height="466" as="geometry" />
        </mxCell>
        <mxCell id="i5632uBjRB5B52lGXk-J-13" value="&lt;div&gt;- _seatLength: int&lt;/div&gt;&lt;div&gt;- _seatWidth: int&lt;/div&gt;&lt;div&gt;- _seatThickness: int&lt;br&gt;&lt;/div&gt;&lt;div&gt;- _legLength: int&lt;br&gt;&lt;/div&gt;&lt;div&gt;- _legWidth: int&lt;br&gt;&lt;/div&gt;&lt;div&gt;- _legHeight: int&lt;/div&gt;&lt;div&gt;- _minMaxValues: Dictionary&amp;lt;string, Tuple&amp;lt;int, int&amp;gt;&amp;gt;&lt;/div&gt;&lt;div&gt;-&amp;nbsp;&lt;font&gt;&lt;span style=&quot;font-family: &amp;quot;Times New Roman&amp;quot;, serif; background-color: transparent; color: light-dark(rgb(0, 0, 0), rgb(255, 255, 255));&quot;&gt;_&lt;/span&gt;&lt;span style=&quot;background-color: transparent; color: light-dark(rgb(0, 0, 0), rgb(255, 255, 255));&quot;&gt;&lt;font style=&quot;&quot; face=&quot;Helvetica&quot;&gt;legsType: LegTypes&lt;/font&gt;&lt;/span&gt;&lt;/font&gt;&lt;/div&gt;&lt;div&gt;&lt;font&gt;&lt;span style=&quot;background-color: transparent; color: light-dark(rgb(0, 0, 0), rgb(255, 255, 255));&quot;&gt;&lt;font style=&quot;&quot; face=&quot;Helvetica&quot;&gt;-&amp;nbsp;&lt;/font&gt;&lt;/span&gt;&lt;/font&gt;&lt;span style=&quot;background-color: transparent; color: light-dark(rgb(0, 0, 0), rgb(255, 255, 255)); font-family: &amp;quot;Times New Roman&amp;quot;, serif;&quot;&gt;_&lt;/span&gt;&lt;span style=&quot;background-color: transparent; color: light-dark(rgb(0, 0, 0), rgb(255, 255, 255));&quot;&gt;seat&lt;/span&gt;&lt;span style=&quot;background-color: transparent; color: light-dark(rgb(0, 0, 0), rgb(255, 255, 255));&quot;&gt;Type: SeatTypes&lt;/span&gt;&lt;/div&gt;&lt;div&gt;+ &amp;lt;&amp;lt;const&amp;gt;&amp;gt;&amp;nbsp;&amp;nbsp;dependentParametersMinSum: int&lt;/div&gt;&lt;div&gt;+ &amp;lt;&amp;lt;const&amp;gt;&amp;gt;&amp;nbsp;&amp;nbsp;dependentParametersMaxSum: int&lt;/div&gt;" style="text;strokeColor=none;fillColor=none;align=left;verticalAlign=top;spacingLeft=4;spacingRight=4;overflow=hidden;rotatable=0;points=[[0,0.5],[1,0.5]];portConstraint=eastwest;whiteSpace=wrap;html=1;" parent="i5632uBjRB5B52lGXk-J-12" vertex="1">
          <mxGeometry y="26" width="370" height="175" as="geometry" />
        </mxCell>
        <mxCell id="i5632uBjRB5B52lGXk-J-14" value="" style="line;strokeWidth=1;fillColor=none;align=left;verticalAlign=middle;spacingTop=-1;spacingLeft=3;spacingRight=3;rotatable=0;labelPosition=right;points=[];portConstraint=eastwest;strokeColor=inherit;" parent="i5632uBjRB5B52lGXk-J-12" vertex="1">
          <mxGeometry y="201" width="370" height="35" as="geometry" />
        </mxCell>
        <mxCell id="i5632uBjRB5B52lGXk-J-15" value="+ Parameters(): void&lt;div&gt;+ CheckParametersValue(): bool&amp;nbsp;&lt;br&gt;&lt;div&gt;+&amp;nbsp;CheckDependentParametersValue: bool&lt;/div&gt;&lt;div&gt;&lt;div&gt;&lt;span style=&quot;background-color: initial;&quot;&gt;+&amp;nbsp;&lt;/span&gt;&lt;span style=&quot;background-color: initial;&quot;&gt;IsWrongValue(int, string, Tuple&amp;lt;int, int&amp;gt;): bool&lt;/span&gt;&lt;/div&gt;&lt;div&gt;&lt;span style=&quot;background-color: transparent; color: light-dark(rgb(0, 0, 0), rgb(255, 255, 255));&quot;&gt;+&amp;nbsp;&lt;/span&gt;&lt;span style=&quot;background-color: initial; color: light-dark(rgb(0, 0, 0), rgb(255, 255, 255));&quot;&gt;AdjustMinValues(int,&lt;/span&gt;&lt;span style=&quot;background-color: transparent; color: light-dark(rgb(0, 0, 0), rgb(255, 255, 255));&quot;&gt;&amp;nbsp;StoolParameters, label&lt;/span&gt;&lt;span style=&quot;background-color: initial; color: light-dark(rgb(0, 0, 0), rgb(255, 255, 255));&quot;&gt;): void&lt;/span&gt;&lt;/div&gt;&lt;div&gt;&lt;span style=&quot;background-color: transparent; color: light-dark(rgb(0, 0, 0), rgb(255, 255, 255));&quot;&gt;&amp;lt;&amp;lt;Property&amp;gt;&amp;gt;&lt;/span&gt;&lt;/div&gt;&lt;/div&gt;&lt;div&gt;+ SeatLength(): int&lt;/div&gt;&lt;div&gt;+ SeatWidth(): int&lt;br&gt;&lt;/div&gt;&lt;div&gt;+ SeatThickness(): int&lt;br&gt;&lt;/div&gt;&lt;div&gt;+ LegLength(): int&lt;br&gt;&lt;/div&gt;&lt;div&gt;+ LegWidth(): int&lt;/div&gt;&lt;/div&gt;&lt;div&gt;+ SeatType():&amp;nbsp;&lt;span style=&quot;background-color: initial;&quot;&gt;SeatTypes&lt;/span&gt;&lt;/div&gt;&lt;div&gt;+ LegsType(): Leg&lt;span style=&quot;background-color: initial;&quot;&gt;Types&lt;/span&gt;&lt;span style=&quot;background-color: initial;&quot;&gt;&lt;/span&gt;&lt;/div&gt;&lt;div&gt;&lt;br&gt;&lt;/div&gt;" style="text;strokeColor=none;fillColor=none;align=left;verticalAlign=top;spacingLeft=4;spacingRight=4;overflow=hidden;rotatable=0;points=[[0,0.5],[1,0.5]];portConstraint=eastwest;whiteSpace=wrap;html=1;" parent="i5632uBjRB5B52lGXk-J-12" vertex="1">
          <mxGeometry y="236" width="370" height="230" as="geometry" />
        </mxCell>
        <mxCell id="i5632uBjRB5B52lGXk-J-16" value="" style="edgeStyle=elbowEdgeStyle;elbow=horizontal;endArrow=classic;html=1;curved=0;rounded=0;endSize=8;startSize=8;exitX=0.5;exitY=0;exitDx=0;exitDy=0;strokeColor=default;startArrow=diamond;startFill=1;entryX=0.5;entryY=0;entryDx=0;entryDy=0;" parent="WIyWlLk6GJQsqaUBKTNV-1" source="i5632uBjRB5B52lGXk-J-0" target="i5632uBjRB5B52lGXk-J-12" edge="1">
          <mxGeometry width="50" height="50" relative="1" as="geometry">
            <mxPoint x="117" y="87" as="sourcePoint" />
            <mxPoint x="167" y="37" as="targetPoint" />
            <Array as="points">
              <mxPoint x="318" y="-156" />
              <mxPoint x="312" y="-76" />
            </Array>
          </mxGeometry>
        </mxCell>
        <mxCell id="i5632uBjRB5B52lGXk-J-17" value="" style="edgeStyle=elbowEdgeStyle;elbow=horizontal;endArrow=classic;html=1;curved=0;rounded=0;endSize=8;startSize=8;exitX=0.5;exitY=1;exitDx=0;exitDy=0;strokeColor=default;startArrow=diamond;startFill=1;" parent="WIyWlLk6GJQsqaUBKTNV-1" source="i5632uBjRB5B52lGXk-J-0" target="i5632uBjRB5B52lGXk-J-4" edge="1">
          <mxGeometry width="50" height="50" relative="1" as="geometry">
            <mxPoint x="68.42399999999994" y="246.00000000000003" as="sourcePoint" />
            <mxPoint x="68.45" y="279.98" as="targetPoint" />
            <Array as="points" />
          </mxGeometry>
        </mxCell>
        <mxCell id="i5632uBjRB5B52lGXk-J-18" value="" style="edgeStyle=elbowEdgeStyle;elbow=horizontal;endArrow=classic;html=1;curved=0;rounded=0;endSize=8;startSize=8;strokeColor=default;startArrow=diamond;startFill=1;" parent="WIyWlLk6GJQsqaUBKTNV-1" edge="1">
          <mxGeometry width="50" height="50" relative="1" as="geometry">
            <mxPoint x="70" y="417" as="sourcePoint" />
            <mxPoint x="76" y="456" as="targetPoint" />
            <Array as="points">
              <mxPoint x="76" y="418" />
            </Array>
          </mxGeometry>
        </mxCell>
        <mxCell id="i5632uBjRB5B52lGXk-J-20" value="" style="edgeStyle=elbowEdgeStyle;elbow=horizontal;endArrow=classic;html=1;curved=0;rounded=0;endSize=8;startSize=8;exitX=1;exitY=0.5;exitDx=0;exitDy=0;dashed=1;" parent="WIyWlLk6GJQsqaUBKTNV-1" source="i5632uBjRB5B52lGXk-J-7" edge="1">
          <mxGeometry width="50" height="50" relative="1" as="geometry">
            <mxPoint x="227" y="375" as="sourcePoint" />
            <mxPoint x="350" y="378" as="targetPoint" />
          </mxGeometry>
        </mxCell>
        <mxCell id="i5632uBjRB5B52lGXk-J-21" value="Use" style="edgeLabel;html=1;align=center;verticalAlign=middle;resizable=0;points=[];" parent="i5632uBjRB5B52lGXk-J-20" vertex="1" connectable="0">
          <mxGeometry x="0.4527" relative="1" as="geometry">
            <mxPoint x="-53" as="offset" />
          </mxGeometry>
        </mxCell>
        <mxCell id="Ahqk0sararzWoLQaCMGD-12" value="&lt;span style=&quot;font-weight: 700;&quot;&gt;&amp;lt;&amp;lt; enumeration &amp;gt;&amp;gt;&lt;/span&gt;&lt;div style=&quot;font-weight: 700;&quot;&gt;LegTypes&lt;/div&gt;" style="rounded=0;whiteSpace=wrap;html=1;" parent="WIyWlLk6GJQsqaUBKTNV-1" vertex="1">
          <mxGeometry x="820" y="460" width="148" height="37" as="geometry" />
        </mxCell>
        <mxCell id="Ahqk0sararzWoLQaCMGD-13" value="&lt;div&gt;&lt;span style=&quot;white-space: pre;&quot;&gt;&#x9;&lt;/span&gt;SquareLeg&lt;/div&gt;&lt;div&gt;&lt;span style=&quot;white-space: pre;&quot;&gt;&#x9;&lt;/span&gt;RoundLeg&lt;/div&gt;" style="rounded=0;whiteSpace=wrap;html=1;align=left;" parent="WIyWlLk6GJQsqaUBKTNV-1" vertex="1">
          <mxGeometry x="820" y="497" width="148" height="60" as="geometry" />
        </mxCell>
        <mxCell id="Ahqk0sararzWoLQaCMGD-14" value="&lt;span style=&quot;font-weight: 700;&quot;&gt;&amp;lt;&amp;lt; enumeration &amp;gt;&amp;gt;&lt;/span&gt;&lt;div style=&quot;font-weight: 700;&quot;&gt;SeatTypes&lt;/div&gt;" style="rounded=0;whiteSpace=wrap;html=1;" parent="WIyWlLk6GJQsqaUBKTNV-1" vertex="1">
          <mxGeometry x="838" y="275" width="148" height="37" as="geometry" />
        </mxCell>
        <mxCell id="Ahqk0sararzWoLQaCMGD-15" value="&lt;div&gt;&lt;span style=&quot;white-space: pre;&quot;&gt;&#x9;&lt;/span&gt;SquareSeat&lt;/div&gt;&lt;div&gt;&lt;span style=&quot;white-space: pre;&quot;&gt;&#x9;&lt;/span&gt;RoundSeat&lt;/div&gt;" style="rounded=0;whiteSpace=wrap;html=1;align=left;" parent="WIyWlLk6GJQsqaUBKTNV-1" vertex="1">
          <mxGeometry x="838" y="312" width="148" height="60" as="geometry" />
        </mxCell>
        <mxCell id="YyVHzflVE-D1PTGsVNi1-0" value="&lt;span style=&quot;font-weight: 700;&quot;&gt;&amp;lt;&amp;lt; enumeration &amp;gt;&amp;gt;&lt;/span&gt;&lt;div style=&quot;font-weight: 700;&quot;&gt;StoolNames&lt;/div&gt;" style="rounded=0;whiteSpace=wrap;html=1;" vertex="1" parent="WIyWlLk6GJQsqaUBKTNV-1">
          <mxGeometry x="316" y="-8" width="148" height="37" as="geometry" />
        </mxCell>
        <mxCell id="YyVHzflVE-D1PTGsVNi1-1" value="SeatLength&lt;br&gt;SeatDiameter&lt;br&gt;SeatWidth&lt;br&gt;SeatThickness&lt;br&gt;LegsHeight&lt;br&gt;LegsWightAndLength&lt;br&gt;LegsDiameter&lt;br&gt;DependentParameters" style="rounded=0;whiteSpace=wrap;html=1;align=left;" vertex="1" parent="WIyWlLk6GJQsqaUBKTNV-1">
          <mxGeometry x="316" y="29" width="148" height="132" as="geometry" />
        </mxCell>
        <mxCell id="YyVHzflVE-D1PTGsVNi1-2" style="edgeStyle=orthogonalEdgeStyle;rounded=0;orthogonalLoop=1;jettySize=auto;html=1;exitX=0;exitY=0.5;exitDx=0;exitDy=0;dashed=1;" edge="1" parent="WIyWlLk6GJQsqaUBKTNV-1" source="YyVHzflVE-D1PTGsVNi1-0" target="i5632uBjRB5B52lGXk-J-1">
          <mxGeometry relative="1" as="geometry" />
        </mxCell>
        <mxCell id="YyVHzflVE-D1PTGsVNi1-5" value="use" style="edgeLabel;html=1;align=center;verticalAlign=middle;resizable=0;points=[];" vertex="1" connectable="0" parent="YyVHzflVE-D1PTGsVNi1-2">
          <mxGeometry x="-0.1171" y="1" relative="1" as="geometry">
            <mxPoint y="1" as="offset" />
          </mxGeometry>
        </mxCell>
        <mxCell id="YyVHzflVE-D1PTGsVNi1-6" style="edgeStyle=orthogonalEdgeStyle;rounded=0;orthogonalLoop=1;jettySize=auto;html=1;exitX=1;exitY=0.5;exitDx=0;exitDy=0;entryX=0.398;entryY=0.002;entryDx=0;entryDy=0;entryPerimeter=0;dashed=1;" edge="1" parent="WIyWlLk6GJQsqaUBKTNV-1" source="YyVHzflVE-D1PTGsVNi1-1" target="i5632uBjRB5B52lGXk-J-12">
          <mxGeometry relative="1" as="geometry" />
        </mxCell>
        <mxCell id="YyVHzflVE-D1PTGsVNi1-7" value="use" style="edgeLabel;html=1;align=center;verticalAlign=middle;resizable=0;points=[];" vertex="1" connectable="0" parent="YyVHzflVE-D1PTGsVNi1-6">
          <mxGeometry x="0.0075" y="1" relative="1" as="geometry">
            <mxPoint as="offset" />
          </mxGeometry>
        </mxCell>
      </root>
    </mxGraphModel>
  </diagram>
</mxfile>
